/* XPM */
static char * D:\1euro\images\ZCz\bitcoin32_xpm[] = {
"32 32 240 2",
"  	c None",
". 	c #474747",
"+ 	c #484848",
"@ 	c #404040",
"# 	c #424242",
"$ 	c #454545",
"% 	c #4A4A4A",
"& 	c #535353",
"* 	c #434343",
"= 	c #414141",
"- 	c #505050",
"; 	c #878787",
"> 	c #A6A6A6",
", 	c #C3C3C3",
"' 	c #D9D9D9",
") 	c #DADADA",
"! 	c #D8D8D8",
"~ 	c #C1C1C1",
"{ 	c #828282",
"] 	c #3E3E3E",
"^ 	c #3C3C3C",
"/ 	c #545454",
"( 	c #969696",
"_ 	c #CFCFCF",
": 	c #E2E2E2",
"< 	c #EAEAEA",
"[ 	c #F1F1F1",
"} 	c #F6F6F6",
"| 	c #F5F5F5",
"1 	c #F0F0F0",
"2 	c #E9E9E9",
"3 	c #E0E0E0",
"4 	c #CBCBCB",
"5 	c #949494",
"6 	c #4B4B4B",
"7 	c #3D3D3D",
"8 	c #757575",
"9 	c #C6C6C6",
"0 	c #DBDBDB",
"a 	c #FEFEFE",
"b 	c #E1E1E1",
"c 	c #B9B9B9",
"d 	c #BDBDBD",
"e 	c #B7B7B7",
"f 	c #BEBEBE",
"g 	c #E3E3E3",
"h 	c #FCFCFC",
"i 	c #E7E7E7",
"j 	c #6D6D6D",
"k 	c #858585",
"l 	c #E4E4E4",
"m 	c #C5C5C5",
"n 	c #B2B2B2",
"o 	c #CCCCCC",
"p 	c #EFEFEF",
"q 	c #E6E6E6",
"r 	c #E8E8E8",
"s 	c #D0D0D0",
"t 	c #B6B6B6",
"u 	c #FBFBFB",
"v 	c #D4D4D4",
"w 	c #7E7E7E",
"x 	c #F4F4F4",
"y 	c #ABABAB",
"z 	c #E5E5E5",
"A 	c #D6D6D6",
"B 	c #7F7F7F",
"C 	c #747474",
"D 	c #B1B1B1",
"E 	c #ECECEC",
"F 	c #DFDFDF",
"G 	c #DCDBDC",
"H 	c #C2C0C1",
"I 	c #C3C1C1",
"J 	c #AFAFAF",
"K 	c #D3D3D3",
"L 	c #6A6A6A",
"M 	c #3F3F3F",
"N 	c #555555",
"O 	c #C4C4C4",
"P 	c #B0B0B0",
"Q 	c #B8B6B6",
"R 	c #CECCCC",
"S 	c #CBCACA",
"T 	c #F7F7F7",
"U 	c #DEDEDE",
"V 	c #BFBFBF",
"W 	c #464646",
"X 	c #4F4F4F",
"Y 	c #959595",
"Z 	c #E2E1E2",
"` 	c #AFADAD",
" .	c #9F9A9B",
"..	c #AAA7A8",
"+.	c #B1AEAE",
"@.	c #DCDCDC",
"#.	c #F3F3F3",
"$.	c #F2F2F2",
"%.	c #D5D5D5",
"&.	c #8F8F8F",
"*.	c #525252",
"=.	c #CDCDCD",
"-.	c #C7C7C7",
";.	c #EBEBEB",
">.	c #EDEDED",
",.	c #A4A1A2",
"'.	c #B0ACAD",
").	c #B3B1B2",
"!.	c #DCDBDB",
"~.	c #B4B3B4",
"{.	c #C0BEBF",
"].	c #BEBCBD",
"^.	c #EEEEEE",
"/.	c #D2D2D2",
"(.	c #FDFDFD",
"_.	c #DBDADA",
":.	c #B8B5B7",
"<.	c #AEAAAB",
"[.	c #AEABAC",
"}.	c #A8A4A5",
"|.	c #9E9A9B",
"1.	c #A29FA0",
"2.	c #9C999A",
"3.	c #BBBBBB",
"4.	c #777777",
"5.	c #444444",
"6.	c #A4A4A4",
"7.	c #A3A0A1",
"8.	c #A19F9F",
"9.	c #C8C6C6",
"0.	c #B1ADAE",
"a.	c #BAB8B8",
"b.	c #B8B5B6",
"c.	c #A8A5A6",
"d.	c #D7D7D7",
"e.	c #9E9E9E",
"f.	c #ABA7A8",
"g.	c #CBC8C9",
"h.	c #C2BFC0",
"i.	c #B4B0B1",
"j.	c #B5B5B5",
"k.	c #4D4D4D",
"l.	c #C9C9C9",
"m.	c #C0B9B9",
"n.	c #D6D2D2",
"o.	c #CBC5C5",
"p.	c #ABA3A3",
"q.	c #A89E9E",
"r.	c #C9C3C3",
"s.	c #E7E6E6",
"t.	c #9F9494",
"u.	c #9A8F8F",
"v.	c #DAD7D7",
"w.	c #F8F8F8",
"x.	c #C0C0C0",
"y.	c #C1BABA",
"z.	c #A19696",
"A.	c #D4D0D0",
"B.	c #A59C9C",
"C.	c #EAE9E9",
"D.	c #A49A9A",
"E.	c #C3BEBE",
"F.	c #D1CCCC",
"G.	c #C1BBBB",
"H.	c #CEC9C9",
"I.	c #CACACA",
"J.	c #C5BFBF",
"K.	c #D5D1D1",
"L.	c #BAB3B3",
"M.	c #CFCBCB",
"N.	c #978B8B",
"O.	c #C0BABA",
"P.	c #3B3B3B",
"Q.	c #C4BEBE",
"R.	c #C8C3C3",
"S.	c #C4BFBF",
"T.	c #B4ACAC",
"U.	c #E4E3E3",
"V.	c #AEA5A5",
"W.	c #D0CBCB",
"X.	c #B3B3B3",
"Y.	c #A3A3A3",
"Z.	c #CDC9C9",
"`.	c #CAC5C5",
" +	c #C3BDBD",
".+	c #E8E7E7",
"++	c #B8B0B0",
"@+	c #BBB4B4",
"#+	c #C2BBBB",
"$+	c #9B9B9B",
"%+	c #808080",
"&+	c #FAFAFA",
"*+	c #C2C2C2",
"=+	c #707070",
"-+	c #C8C8C8",
";+	c #E9E8E8",
">+	c #EDECEC",
",+	c #909090",
"'+	c #F9F9F9",
")+	c #ADADAD",
"!+	c #B6AEAE",
"~+	c #ABA1A1",
"{+	c #BCBCBC",
"]+	c #888888",
"^+	c #494949",
"/+	c #978A8A",
"(+	c #E3E1E1",
"_+	c #A39A9A",
":+	c #9D9090",
"<+	c #DCDADA",
"[+	c #DAD8D8",
"}+	c #6B6B6B",
"|+	c #B4B4B4",
"1+	c #AAA0A0",
"2+	c #EFEEEE",
"3+	c #A49999",
"4+	c #968A8A",
"5+	c #B9B2B2",
"6+	c #BCB6B6",
"7+	c #5C5C5C",
"8+	c #7C7C7C",
"9+	c #DDDDDD",
"0+	c #9E9393",
"a+	c #BDB7B7",
"b+	c #A19797",
"c+	c #DEDCDC",
"d+	c #B3ABAB",
"e+	c #B1A8A8",
"f+	c #C1BCBC",
"g+	c #D1D1D1",
"h+	c #727272",
"i+	c #7B7B7B",
"j+	c #CECECE",
"k+	c #BFBEBE",
"l+	c #D0CFCF",
"m+	c #717171",
"n+	c #686868",
"o+	c #8D8D8D",
"p+	c #868686",
"q+	c #393939",
"                              . +                               ",
"                      @ # $ % & & + * = @                       ",
"                = = - ; > , ' ) ) ! ~ > { % ] %                 ",
"              ^ / ( _ ) : < [ } | 1 2 3 ' 4 5 6 7               ",
"            = 8 9 0 < a b c d e c f c g h i ! , j ^             ",
"          * k ! l a m n o p q q q r } s t o u b v w ^           ",
"        # k ) < x > r l i 2 r q q q q : l : y | z A B ^         ",
"      ^ C ! 2 r D E F : i i G H I r q q z g E J E l K L M       ",
"    = N O l | P z : : g g i Q R S l l r E E 2 2 n T U V W X     ",
"    # Y ) a > i z i q l l Z `  ...+.@.p p #.$.< E n T %.&.]     ",
"    *.=.2 -.3 : ;.>.p q ,.'.).!.~.{.].@.>.>.1 ^.r b /.: m *     ",
"  @ k ' (.P z z < ^.p _.:.<.[.}.|.1.2 2.2 E ^.1 $.r 3.T %.4.#   ",
"  5.6.3 z 4 g q q r : b 7.8.9.0.'.a.b.c.d.>.$.| | ^.=.< ) e.]   ",
"  + f r d ^.b z r i l z r ;.@.f.g.[ h.i.^.p ^.p p 2 $.~ : j.@   ",
"  k.v p O ;.r E p p p ^.p >.< 2 >.#.x p E >.1 p >.E ;.l.i o ^   ",
". *.' #.~ < ;.>.^.E E m.n.o.p.q.r.s.t.u.v.1 w.w.w.p ^.l.;.s 5.  ",
"+ - ! #.x.i r E 2 2 y.z.A.1 $.B.C.D.>.^.E.F.G.H.x >.>.I.;._ *   ",
"  6 /.>., r r >.1 ^.| J.K.1 L.M.;.N.r E p | O.H.[ 2 E =.q 4 P.  ",
"  $ d q V E l p | T T Q.A.R.S.} $.T.g U.V.W.G.| | E x O 3 X.]   ",
"  * Y.U i 4 q E 1 $.p Z.v.`.L.L. +< O.L..+++@+#+$.r o >.' $+M   ",
"  M %+d.&+3.< q ;.>.;.i E 1 [ ^.i < 2 2 E 1 | | ^.;.*+#./.=+$   ",
"    6 -+z s F F b 2 < ;+>+E p >.>.>.>.E ;.p $.1 2 z d.3 ~ 7     ",
"    M ,+d.'+)+g F < >.!+N.~+[ ^.[ p ^.p 1 1 ;.q >.{+$./.]+@     ",
"    ^+6 V 3 T P 2 i < $.~+[ /+t.(+_+:+S.<+[+2 2 f | 0 {+7       ",
"      7 }+K l >.|+q g ;.1+2+3+1 4+D.$.5+b 6+>.V E F =.7+$       ",
"        ^ 8+A g w.|+9+l 0+i a+b+c+u.E d+e+f+{+| 3 g+h+]         ",
"          ^ i+/.U T v f l.p i l b g ;.j+k+l+#.@.=.m+P.          ",
"            P.n+V A g T ;., l.m , I.9 E x 3 K {+7+M             ",
"              M # o+9 A 0 g r >.E i b ) v , p+^ .               ",
"                  ] @ C e.t =.g+s o j.$+j P.@                   ",
"                      5.M 7 q+@ M q+7 @ ^+                      ",
"                                                                "};
