/* XPM */
static char * D:\1euro\images\ZCz\bitcoin16_xpm[] = {
"16 16 104 2",
"  	c None",
". 	c #3E3E3E",
"+ 	c #404040",
"@ 	c #3B3B3B",
"# 	c #535353",
"$ 	c #A0A0A0",
"% 	c #D6D6D6",
"& 	c #F3F3F3",
"* 	c #F2F2F2",
"= 	c #D5D5D5",
"- 	c #9B9B9B",
"; 	c #515151",
"> 	c #7E7E7E",
", 	c #EDEDED",
"' 	c #D3D3D3",
") 	c #CCCCCC",
"! 	c #CDCDCD",
"~ 	c #D7D7D7",
"{ 	c #EAEAEA",
"] 	c #777777",
"^ 	c #EEEEEE",
"/ 	c #C6C6C6",
"( 	c #E7E7E7",
"_ 	c #E8E8E8",
": 	c #E6E6E6",
"< 	c #E4E4E4",
"[ 	c #C8C8C8",
"} 	c #ECECEC",
"| 	c #545454",
"1 	c #C5C5C5",
"2 	c #E3E3E3",
"3 	c #E2E2E2",
"4 	c #C7C5C6",
"5 	c #D9D7D8",
"6 	c #EFEFEF",
"7 	c #4F4F4F",
"8 	c #9F9F9F",
"9 	c #B6B4B5",
"0 	c #B0ADAE",
"a 	c #D7D6D7",
"b 	c #EBEBEB",
"c 	c #D8D8D8",
"d 	c #939393",
"e 	c #D2D2D2",
"f 	c #E0E0E0",
"g 	c #A6A3A4",
"h 	c #B3AFB0",
"i 	c #A4A0A1",
"j 	c #B8B5B6",
"k 	c #F1F1F1",
"l 	c #D9D9D9",
"m 	c #CBCBCB",
"n 	c #373737",
"o 	c #F0F0F0",
"p 	c #D4D4D4",
"q 	c #E7E6E6",
"r 	c #E5E4E4",
"s 	c #C7C4C4",
"t 	c #BCB7B8",
"u 	c #F4F4F4",
"v 	c #3C3C3C",
"w 	c #D1D1D1",
"x 	c #B0A7A7",
"y 	c #C6C2C2",
"z 	c #C2BCBC",
"A 	c #CBC6C6",
"B 	c #C3BDBD",
"C 	c #DADADA",
"D 	c #E9E9E9",
"E 	c #D8D5D5",
"F 	c #CFCACA",
"G 	c #DCD9D9",
"H 	c #CCC8C8",
"I 	c #BEB7B7",
"J 	c #D9D6D6",
"K 	c #DBDBDB",
"L 	c #C9C9C9",
"M 	c #999999",
"N 	c #E4E3E3",
"O 	c #D5D3D3",
"P 	c #E0DDDD",
"Q 	c #8D8D8D",
"R 	c #505050",
"S 	c #C7C7C7",
"T 	c #CAC5C5",
"U 	c #D1CCCC",
"V 	c #4D4D4D",
"W 	c #767676",
"X 	c #D2CECE",
"Y 	c #C6C0C0",
"Z 	c #9F9595",
"` 	c #BCB5B5",
" .	c #6D6D6D",
"..	c #747474",
"+.	c #CAC8C8",
"@.	c #B4AEAE",
"#.	c #BCB6B6",
"$.	c #C8C5C5",
"%.	c #4E4E4E",
"&.	c #919191",
"*.	c #CACACA",
"=.	c #8C8C8C",
"-.	c #4C4C4C",
";.	c #363636",
"            . + + @             ",
"        # $ % & * = - ;         ",
"      > , = ' ) ! ~ ~ { ]       ",
"    > ^ / ( _ : ( < : [ } ]     ",
"  | } 1 ( 2 3 4 5 { 6 ^ ) : 7   ",
"  8 = ( , 6 4 9 0 a } 6 b c d   ",
". e = 2 : f g h i j { k 6 l m n ",
"+ o p b ^ q r s q t b u o c ( v ",
"+ ^ w { { x r y z b A B , C : v ",
"@ w = D u E F G H } I J 6 K L n ",
"  M l : _ 3 r J N O r P } C Q   ",
"  R ( S D o T U k } } { ' 3 V   ",
"    W b ) : X N Y Z ` ' (  .    ",
"      ..: C +.p @.#.$.2  .      ",
"        %.&.) D ( *.=.-.        ",
"            ;.@ @ n             "};
